<?xml version="1.0" encoding="UTF-8"?>
<svg xmlns="http://www.w3.org/2000/svg" xmlns:xlink="http://www.w3.org/1999/xlink" width="33px" height="40px" viewBox="0 0 33 39" version="1.1">
<g id="surface1">
<path style=" stroke:none;fill-rule:nonzero;fill:rgb(93.333333%,29.803922%,17.254902%);fill-opacity:1;" d="M 28.140625 11.351562 L 25.179688 14.238281 C 30.039062 18.984375 30.039062 26.613281 25.179688 31.285156 C 20.320312 36.027344 12.5 36.027344 7.710938 31.285156 C 2.851562 26.542969 2.851562 18.910156 7.710938 14.238281 L 15.421875 6.714844 L 16.519531 5.644531 L 16.519531 -0.0234375 L 4.898438 11.316406 C -1.570312 17.628906 -1.570312 27.828125 4.898438 34.140625 C 11.367188 40.449219 21.816406 40.449219 28.175781 34.140625 C 34.609375 27.828125 34.609375 17.699219 28.140625 11.351562 Z M 28.140625 11.351562 "/>
<path style=" stroke:none;fill-rule:nonzero;fill:rgb(93.333333%,29.803922%,17.254902%);fill-opacity:1;" d="M 24.484375 8.570312 C 24.484375 9.730469 23.519531 10.675781 22.328125 10.675781 C 21.136719 10.675781 20.171875 9.730469 20.171875 8.570312 C 20.171875 7.40625 21.136719 6.464844 22.328125 6.464844 C 23.519531 6.464844 24.484375 7.40625 24.484375 8.570312 Z M 24.484375 8.570312 "/>
</g>
</svg>
